<svg width="8" height="7" viewBox="0 0 8 7" fill="none" xmlns="http://www.w3.org/2000/svg">
<path d="M2.35957 2.9091L2.35957 0.471478L5.61522 0.471478L5.61522 2.9091L6.91748 2.9091L3.98739 5.89111L1.05731 2.90909L2.35957 2.9091Z" fill="#E83F5B"/>
<path d="M1.05696 2.63818C1.15137 2.63818 1.24481 2.67204 1.30927 2.73758L3.98802 5.46149L6.66645 2.73758C6.78072 2.62139 6.98518 2.60487 7.12452 2.69912C7.26386 2.79419 7.28437 2.96455 7.17075 3.0802L4.24033 6.06033C4.11629 6.18627 3.86007 6.18627 3.73603 6.06033L0.805295 3.0802C0.691347 2.96455 0.712183 2.79392 0.851525 2.69912C0.911755 2.65823 0.984356 2.63818 1.05696 2.63818Z" fill="#E83F5B"/>
<path d="M5.61609 0.200375C5.79612 0.200375 5.94165 0.321443 5.94165 0.471221L5.94165 2.90884C5.94165 3.05862 5.79612 3.17969 5.61609 3.17969C5.43605 3.17969 5.29052 3.05862 5.29052 2.90884L5.29052 0.471221C5.29052 0.321443 5.43605 0.200375 5.61609 0.200375Z" fill="#E83F5B"/>
<path d="M2.36043 0.200495L5.61609 0.200495C5.79612 0.200495 5.94165 0.321563 5.94165 0.471341C5.94165 0.621119 5.79612 0.742187 5.61609 0.742187L2.36043 0.742187C2.18039 0.742187 2.03487 0.621119 2.03487 0.471341C2.03487 0.321563 2.18039 0.200495 2.36043 0.200495Z" fill="#E83F5B"/>
<path d="M2.36023 0.200376C2.54026 0.200377 2.68579 0.321445 2.68579 0.471223L2.68579 2.90884C2.68579 3.05862 2.54026 3.17969 2.36023 3.17969C2.18019 3.17969 2.03466 3.05862 2.03466 2.90884L2.03466 0.471223C2.03466 0.321445 2.18019 0.200376 2.36023 0.200376Z" fill="#E83F5B"/>
<path d="M5.61574 2.63799L6.91833 2.63799C7.09837 2.63799 7.2439 2.75906 7.2439 2.90884C7.2439 3.05862 7.09837 3.17969 6.91833 3.17969L5.61574 3.17969C5.4357 3.17969 5.29018 3.05862 5.29018 2.90884C5.29018 2.75906 5.4357 2.63799 5.61574 2.63799Z" fill="#E83F5B"/>
<path d="M1.05732 2.63799L2.36023 2.63799C2.54026 2.63799 2.68579 2.75906 2.68579 2.90884C2.68579 3.05862 2.54026 3.17969 2.36023 3.17969L1.05732 3.17969C0.877278 3.17969 0.731751 3.05862 0.731751 2.90884C0.731751 2.75906 0.877278 2.63799 1.05732 2.63799Z" fill="#E83F5B"/>
</svg>
