<svg width="8" height="7" viewBox="0 0 8 7" fill="none" xmlns="http://www.w3.org/2000/svg">
<path d="M5.61626 3.49364V5.98665H2.36061V3.49364H1.05835L3.98844 0.443848L6.91853 3.49364H5.61626Z" fill="#4CD62B"/>
<path d="M6.91887 3.77084C6.82446 3.77084 6.73102 3.73622 6.66656 3.66918L3.98781 0.883372L1.30938 3.66918C1.19511 3.78801 0.990654 3.80491 0.851312 3.70851C0.71197 3.61129 0.69146 3.43705 0.805083 3.31877L3.7355 0.270921C3.85954 0.142115 4.11576 0.142115 4.2398 0.270921L7.17054 3.31877C7.28448 3.43705 7.26365 3.61156 7.12431 3.70851C7.06408 3.75034 6.99148 3.77084 6.91887 3.77084Z" fill="#4CD62B"/>
<path d="M2.35999 6.26382C2.17995 6.26382 2.03442 6.14 2.03442 5.98682V3.4938C2.03442 3.34062 2.17995 3.2168 2.35999 3.2168C2.54003 3.2168 2.68555 3.34062 2.68555 3.4938V5.98682C2.68555 6.14 2.54003 6.26382 2.35999 6.26382Z" fill="#4CD62B"/>
<path d="M5.61564 6.26397H2.35999C2.17995 6.26397 2.03442 6.14015 2.03442 5.98696C2.03442 5.83378 2.17995 5.70996 2.35999 5.70996H5.61564C5.79568 5.70996 5.94121 5.83378 5.94121 5.98696C5.94121 6.14015 5.79568 6.26397 5.61564 6.26397Z" fill="#4CD62B"/>
<path d="M5.61561 6.26382C5.43557 6.26382 5.29004 6.14 5.29004 5.98682V3.4938C5.29004 3.34062 5.43557 3.2168 5.61561 3.2168C5.79565 3.2168 5.94118 3.34062 5.94118 3.4938V5.98682C5.94118 6.14 5.79565 6.26382 5.61561 6.26382Z" fill="#4CD62B"/>
<path d="M2.36008 3.7708H1.0575C0.877461 3.7708 0.731934 3.64698 0.731934 3.4938C0.731934 3.34062 0.877461 3.2168 1.0575 3.2168H2.36008C2.54012 3.2168 2.68565 3.34062 2.68565 3.4938C2.68565 3.64698 2.54012 3.7708 2.36008 3.7708Z" fill="#4CD62B"/>
<path d="M6.91852 3.7708H5.61561C5.43557 3.7708 5.29004 3.64698 5.29004 3.4938C5.29004 3.34062 5.43557 3.2168 5.61561 3.2168H6.91852C7.09856 3.2168 7.24409 3.34062 7.24409 3.4938C7.24409 3.64698 7.09856 3.7708 6.91852 3.7708Z" fill="#4CD62B"/>
</svg>
